<svg xmlns="http://www.w3.org/2000/svg" version="1.1" xmlns:xlink="http://www.w3.org/1999/xlink" id="Layer_1" viewBox="0 0 512.00 512.00" xml:space="preserve" width="256px" height="256px" fill="#000000" stroke="#000000" stroke-width="0.00512"><metadata><rdf:RDF xmlns:rdf="http://www.w3.org/1999/02/22-rdf-syntax-ns#" xmlns:dc="http://purl.org/dc/elements/1.1/"><rdf:Description><dc:creator>RealFaviconGenerator</dc:creator><dc:source>https://realfavicongenerator.net</dc:source></rdf:Description></rdf:RDF></metadata><g id="SVGRepo_bgCarrier" stroke-width="0"></g><g id="SVGRepo_tracerCarrier" stroke-linecap="round" stroke-linejoin="round"></g><g id="SVGRepo_iconCarrier"> <rect x="252.257" y="131.108" transform="matrix(-0.5882 -0.8087 0.8087 -0.5882 414.334 510.6573)" style="fill:#0052B4;" width="169.844" height="37.463"></rect> <path style="fill:#003778;" d="M455.805,318.439h-37.463v-49.951c0-13.772-11.204-24.976-24.976-24.976 s-24.976,11.204-24.976,24.976v49.951h-37.463v-49.951c0-34.429,28.01-62.439,62.439-62.439s62.439,28.01,62.439,62.439V318.439z"></path> <g> <polyline style="fill:#0052B4;" points="199.805,280.976 349.659,443.317 237.268,443.317 110.31,305.952 "></polyline> <polygon style="fill:#0052B4;" points="110.31,206.048 224.78,81.171 287.22,81.171 291.382,131.122 199.805,231.024 "></polygon> <rect x="56.195" y="437.073" style="fill:#0052B4;" width="337.171" height="74.927"></rect> </g> <rect x="224.78" y="437.073" style="fill:#003778;" width="168.585" height="74.927"></rect> <circle style="fill:#0052B4;" cx="137.366" cy="256" r="62.439"></circle> <path style="fill:#003778;" d="M137.366,337.171c-44.758,0-81.171-36.413-81.171-81.171s36.413-81.171,81.171-81.171 s81.171,36.413,81.171,81.171S182.123,337.171,137.366,337.171z M137.366,212.293c-24.1,0-43.707,19.607-43.707,43.707 s19.607,43.707,43.707,43.707S181.073,280.1,181.073,256S161.466,212.293,137.366,212.293z"></path> <circle style="fill:#0052B4;" cx="287.22" cy="81.171" r="62.439"></circle> <path style="fill:#003778;" d="M287.22,162.341c-44.758,0-81.171-36.413-81.171-81.171S242.462,0,287.22,0 s81.171,36.413,81.171,81.171S331.977,162.341,287.22,162.341z M287.22,37.463c-24.1,0-43.707,19.607-43.707,43.707 s19.607,43.707,43.707,43.707s43.707-19.607,43.707-43.707S311.32,37.463,287.22,37.463z"></path> </g></svg>